<svg height="81" viewBox="0 0 79 81" width="79" xmlns="http://www.w3.org/2000/svg" xmlns:xlink="http://www.w3.org/1999/xlink"><defs><path id="a" d="m10.1225179 49.5507916c-6.1844469-5.1360147-10.1225179-12.8835103-10.1225179-21.5507916 0-15.463973 12.536027-28 28-28s28 12.536027 28 28c0 8.6672813-3.938071 16.4147769-10.1225179 21.5507916-2.6407324-7.3189601-9.6481274-12.5507916-17.8774821-12.5507916s-15.2367497 5.2318315-17.8774821 12.5507916zm17.8774821-14.5507916c5.5228475 0 10-4.4771525 10-10s-4.4771525-10-10-10-10 4.4771525-10 10 4.4771525 10 10 10z"/><mask id="b" fill="#fff"><use fill="#fff" xlink:href="#a"/></mask></defs><g fill="#fff"><path d="m34 68c-18.7776815 0-34-15.2223185-34-34s15.2223185-34 34-34 34 15.2223185 34 34c0 9.3725063-3.7695542 17.8349674-9.9034822 23.9852013l3.520684 3.5108437 2.453866-2.496045 13.4514555 13.533494c4.2999501 5.0658245-2.1740359 11.0735539-6.7756815 7.2271443l-13.7468418-13.7606383 2.523725-2.3702869-3.6599657-3.59072c-5.9109373 4.9683347-13.5378603 7.9610069-21.8637593 7.9610069zm30.0710678-6.1715729-4.1743525 4.2268592 11.9797673 12.0513281c1.1459054 1.1527504 3.0093342 1.1582994 4.1620847.012394.0064201-.006382.0128108-.0127936.0191717-.0192345 1.155818-1.1703563 1.1527372-3.0534505-.0069039-4.2200187zm-30.0710678 4.1715729c17.673112 0 32-14.326888 32-32s-14.326888-32-32-32-32 14.326888-32 32 14.326888 32 32 32z"/><path d="m34 64c-16.5685425 0-30-13.4314575-30-30s13.4314575-30 30-30 30 13.4314575 30 30-13.4314575 30-30 30zm0-2c15.463973 0 28-12.536027 28-28s-12.536027-28-28-28-28 12.536027-28 28 12.536027 28 28 28z"/><g transform="translate(6 6)"><use fill-opacity=".3" xlink:href="#a"/><path d="m22.5760975 35.7071517c-3.9021153-1.9806093-6.5760975-6.0316095-6.5760975-10.7071517 0-6.627417 5.372583-12 12-12s12 5.372583 12 12c0 4.6755422-2.6739822 8.7265424-6.5760975 10.7071517 8.969074 2.3911478 15.5760975 10.5704216 15.5760975 20.2928483 0 11.5979797-9.4020203 21-21 21s-21-9.4020203-21-21c0-9.7224267 6.6070235-17.9017005 15.5760975-20.2928483zm5.4239025-.7071517c5.5228475 0 10-4.4771525 10-10s-4.4771525-10-10-10-10 4.4771525-10 10 4.4771525 10 10 10zm0 40c10.4934102 0 19-8.5065898 19-19s-8.5065898-19-19-19-19 8.5065898-19 19 8.5065898 19 19 19z" mask="url(#b)"/></g></g></svg>