<svg width="180" height="180" viewBox="0 0 180 180" fill="none" xmlns="http://www.w3.org/2000/svg">
<path d="M84.5455 137.82H81.0115C81.0115 135.054 81.0884 132.212 81.0884 130.599C81.0884 127.295 80.4738 126.527 79.3214 126.527C78.63 126.527 77.6312 127.065 76.7093 127.756C76.7862 128.217 76.863 128.832 76.863 129.83V137.82H73.2522V130.599C73.2522 127.372 72.6376 126.527 71.4853 126.527C70.7938 126.527 69.9488 126.988 69.0269 127.679V137.82H65.4929V123.992H68.4123L68.6428 125.451C69.7183 124.453 71.178 123.684 72.7145 123.684C74.4046 123.684 75.557 124.529 76.0947 125.682C77.4008 124.529 78.8604 123.684 80.5506 123.684C83.2395 123.684 84.6991 125.451 84.6991 129.907C84.6223 131.597 84.5455 134.747 84.5455 137.82ZM94.9936 137.82L94.7631 136.437C93.6207 137.517 92.1098 138.122 90.5378 138.127C87.7721 138.127 86.2356 136.745 86.2356 134.209C86.2356 131.367 88.5403 129.446 93.3803 129.446H94.2254V128.371C94.2254 126.988 93.4571 126.296 91.6902 126.296C90.2305 126.296 88.7708 126.681 87.4648 127.141L87.0039 124.99C88.6172 124.299 90.5378 123.761 92.6121 123.761C96.146 123.761 97.7593 125.451 97.7593 128.063V137.897H94.9936V137.82ZM94.2254 131.52H93.1498C90.461 131.52 89.6927 132.442 89.6927 133.672C89.6927 134.824 90.3073 135.515 91.5365 135.515C92.3816 135.515 93.3035 135.054 94.1485 134.286V131.52H94.2254ZM107.977 127.141C107.593 126.988 107.209 126.988 106.748 126.911C105.98 126.911 105.288 127.449 104.059 128.985V137.743H100.525V123.915H103.444L103.752 126.066C105.134 124.222 106.133 123.608 107.055 123.608C107.516 123.608 107.977 123.684 108.438 123.915L107.977 127.141ZM117.042 137.82L113.278 130.983V137.82H109.744V121.687H113.278V129.293L116.504 123.992H120.653L116.504 129.754L121.191 137.82H117.042ZM124.802 131.597V131.828C124.802 134.363 125.954 135.439 127.875 135.439C129.104 135.439 130.717 135.208 132.407 134.67L132.945 136.745C131.255 137.59 129.257 138.204 127.26 138.204C123.649 138.204 121.268 136.437 121.268 131.367C121.268 126.45 123.649 123.761 127.567 123.761C131.101 123.761 133.483 125.759 133.099 131.674L124.802 131.597ZM129.488 129.369C129.488 127.141 128.72 126.066 127.26 126.066C125.723 126.066 124.878 127.449 124.802 129.369H129.488ZM138.937 138.127C136.402 138.127 135.403 137.129 135.403 134.517V126.45H133.636V123.992H135.48C135.787 123.223 136.095 122.455 136.325 121.687H138.86V123.992H141.933V126.45H138.86V133.595C138.86 134.978 139.168 135.439 140.166 135.439C140.551 135.439 141.165 135.362 142.01 135.131L142.318 137.206C141.088 137.82 140.013 138.127 138.937 138.127ZM35.3009 137.974C32.9962 137.974 32.1511 136.975 32.1511 134.363V125.835H30V124.222H32.2279C32.4584 122.993 32.612 123.147 32.7657 121.687H34.3022V124.222H37.9129V125.835H34.3022V133.825C34.3022 135.669 34.6095 136.36 35.9155 136.36C36.3764 136.36 36.991 136.284 37.9898 135.899L38.2971 137.206C37.2215 137.743 36.2228 137.974 35.3009 137.974ZM50.5122 137.82H48.3611C48.3611 135.285 48.4379 132.289 48.4379 130.599C48.4379 126.988 47.516 125.759 45.8259 125.759C44.904 125.759 43.6748 126.296 42.5224 127.372V137.82H40.3713V121.687H42.5224V125.682C43.6748 124.76 44.9808 123.992 46.5941 123.992C49.0525 123.992 50.589 125.528 50.589 129.984C50.589 131.674 50.5122 134.978 50.5122 137.82ZM54.7375 131.29V131.597C54.7375 134.978 56.0435 136.36 58.5019 136.36C59.8847 136.36 61.1908 136.053 62.4968 135.515L62.8809 136.821C61.3444 137.59 59.6543 138.051 57.9641 138.051C54.6607 138.051 52.5096 136.284 52.5096 131.444C52.5096 126.681 54.5838 123.992 58.041 123.992C61.2676 123.992 63.1882 126.066 62.8809 131.29H54.7375ZM60.8066 129.677C60.8066 127.065 59.8848 125.528 57.9641 125.528C55.9667 125.528 54.8912 127.449 54.8143 129.83H60.8835V129.677H60.8066ZM144.853 124.376V127.756H144.392V124.376H143.393V123.992H145.775V124.376H144.853ZM149.616 127.756C149.616 126.604 149.539 125.375 149.385 124.606L148.31 127.756H147.926L146.85 124.606C146.773 125.451 146.697 126.604 146.697 127.756H146.236C146.236 126.527 146.389 125.298 146.543 124.069H147.158L148.156 126.988L149.155 124.069H149.693C149.846 125.298 149.923 126.604 150 127.756H149.616Z" fill="#004A8E"/>
<path d="M90.563 117.532C90.1079 117.532 89.6528 117.532 89.1219 117.456V119.874H85.7087V103.933H88.5151L88.8185 105.293C89.8804 104.311 91.1698 103.631 92.5351 103.631C95.7207 103.631 97.3135 106.502 97.3135 110.052C97.2376 115.341 94.4313 117.532 90.563 117.532ZM91.549 106.275C90.9423 106.275 90.0321 106.653 89.1978 107.408V114.812C89.6528 114.963 90.1838 115.114 90.7906 115.114C92.5351 115.114 93.7486 113.679 93.7486 110.581C93.7486 107.786 92.9143 106.275 91.549 106.275ZM45.4335 117.909C41.8686 117.909 39.9724 115.643 39.9724 111.034C39.9724 106.728 42.2478 103.782 45.8127 103.782C47.4814 103.782 48.7708 104.386 49.7568 105.519L48.5432 107.333C47.9364 106.728 47.1021 106.426 46.2678 106.426C44.675 106.426 43.6131 107.861 43.6131 110.732C43.6131 114.056 44.5233 115.341 46.1161 115.341C47.178 115.341 48.0881 114.963 48.9983 114.208L50.0602 116.021C48.8219 117.224 47.1631 117.901 45.4335 117.909ZM56.4314 117.909C52.639 117.909 50.4394 116.096 50.4394 111.11C50.4394 106.124 52.9424 103.706 57.0382 103.706C60.8306 103.706 63.0302 105.519 63.0302 110.506C63.0302 115.567 60.5272 117.909 56.4314 117.909ZM56.7348 106.275C55.142 106.275 54.0801 107.408 54.0801 110.506C54.0801 114.359 55.0662 115.341 56.8107 115.341C58.4035 115.341 59.4653 114.208 59.4653 111.11C59.4653 107.257 58.4793 106.275 56.7348 106.275ZM83.585 117.607H80.096C80.096 114.888 80.1718 112.092 80.1718 110.506C80.1718 107.257 79.5651 106.502 78.4273 106.502C77.7447 106.502 76.7587 107.03 75.8485 107.71C75.9244 108.164 76.0002 108.768 76.0002 109.75V117.607H72.5112V110.506C72.5112 107.333 71.9044 106.502 70.7667 106.502C70.0841 106.502 69.2497 106.955 68.3396 107.635V117.607H64.6989V104.008H67.5811L67.8086 105.444C68.8705 104.462 70.3116 103.706 71.8286 103.706C73.4972 103.706 74.6349 104.537 75.1659 105.67C76.4553 104.537 77.8964 103.706 79.5651 103.706C82.2197 103.706 83.6609 105.444 83.6609 109.826C83.6609 111.488 83.585 114.585 83.585 117.607ZM107.098 117.607L106.87 116.247C105.742 117.309 104.251 117.904 102.699 117.909C99.9682 117.909 98.4512 116.55 98.4512 114.056C98.4512 111.261 100.727 109.372 105.505 109.372H106.339V108.315C106.339 106.955 105.581 106.275 103.836 106.275C102.395 106.275 100.954 106.653 99.6648 107.106L99.2097 104.991C100.802 104.311 102.699 103.782 104.747 103.782C108.236 103.782 109.828 105.444 109.828 108.012V117.683H107.098V117.607ZM106.339 111.412H105.278C102.623 111.412 101.864 112.319 101.864 113.528C101.864 114.661 102.471 115.341 103.685 115.341C104.519 115.341 105.429 114.888 106.339 114.132V111.412ZM119.613 107.106C119.234 106.955 118.854 106.955 118.399 106.879C117.641 106.879 116.958 107.408 115.745 108.919V117.532H112.256V103.933H115.138L115.441 106.048C116.806 104.235 117.792 103.631 118.703 103.631C119.158 103.631 119.613 103.706 120.068 103.933L119.613 107.106ZM123.557 111.488V111.714C123.557 114.208 124.695 115.265 126.591 115.265C127.804 115.265 129.397 115.039 131.066 114.51L131.597 116.55C129.928 117.456 127.956 117.985 125.984 117.985C122.419 117.985 120.068 116.247 120.068 111.261C120.068 106.426 122.419 103.782 126.287 103.782C129.776 103.782 132.128 105.746 131.748 111.563L123.557 111.488ZM128.259 109.297C128.259 107.106 127.501 106.048 126.06 106.048C124.543 106.048 123.709 107.408 123.633 109.297H128.259Z" fill="#004A8E"/>
<path d="M86.2087 93.5825C100.729 93.5825 112.5 81.8115 112.5 67.2913C112.5 52.771 100.729 41 86.2087 41C71.6885 41 59.9175 52.771 59.9175 67.2913C59.9175 81.8115 71.6885 93.5825 86.2087 93.5825Z" fill="url(#paint0_linear)"/>
<path d="M74.5603 80.8902C74.4755 83.9596 73.7972 87.029 72.6101 90.0984C76.5104 92.3382 81.0043 93.5825 85.8373 93.5825C89.4832 93.5825 92.9596 92.8359 96.1816 91.5086C90.4321 85.6483 82.7986 81.8994 74.5603 80.8902V80.8902Z" fill="url(#paint1_linear)"/>
<path opacity="0.55" d="M75.0067 80.8902C74.9233 82.4345 74.7566 83.9789 74.4231 85.5232C81.0923 86.0109 87.0946 88.6119 91.763 92.6759C93.2636 92.3508 94.7642 91.8631 96.1814 91.2942C91.1795 86.0922 83.76 81.9468 75.0067 80.8902Z" fill="url(#paint2_linear)"/>
<path d="M74.4231 91.1162C77.9862 92.6782 82.0062 93.5825 86.2088 93.5825C83.5593 89.2253 78.9912 87.2523 74.4231 91.1162Z" fill="url(#paint3_linear)"/>
<path d="M91.9074 77.4621C89.4517 76.9222 86.9959 77.552 85.3022 78.5419C88.7742 80.2515 87.6733 82.0512 88.7742 85.3805C91.6534 87.1802 94.1939 89.4298 96.3109 91.7693C97.8352 91.0494 99.3595 90.2396 100.714 89.2498C98.2586 81.0614 95.0407 78.0919 91.9074 77.4621V77.4621Z" fill="url(#paint4_linear)"/>
<path d="M85.3886 78.6789C80.4671 76.5492 74.4231 76.2829 74.4231 76.3717C74.5958 77.8803 74.6821 78.8564 74.6821 80.365C79.431 80.9862 83.8344 82.4947 87.6335 84.6245L88.9286 85.4232C87.8925 82.1398 89.015 80.365 85.3886 78.6789V78.6789Z" fill="url(#paint5_linear)"/>
<path d="M99.3366 53.1027C99.3366 53.1027 97.1909 53.3598 96.2468 53.3598C94.6161 53.4456 93.2428 53.5313 92.8137 53.3598C90.4105 52.9312 88.4365 50.5309 87.8357 49.3308C87.7499 49.1594 87.6641 49.1594 87.4924 49.1594C87.2349 49.2451 86.8916 49.4165 86.2908 49.6737H86.205C85.7759 49.8452 85.2609 50.0166 84.6601 50.188C82.1711 50.9596 79.5963 51.0453 76.1632 52.8455C72.7302 54.56 70.1553 57.1317 68.9538 60.132C66.6364 65.9612 69.2971 70.2474 72.4727 72.9906C73.5884 74.0193 74.3609 75.3051 74.7042 76.8482C74.7042 76.7625 80.7121 77.0196 85.5184 79.077C87.2349 78.134 89.6381 77.6197 92.1271 78.0483C90.7538 75.4766 91.9554 73.7621 92.2987 73.162C92.7279 72.3905 92.8995 72.2191 93.5003 71.619C93.3287 71.5333 92.9853 71.5333 92.8995 71.2761C92.8995 71.2761 94.4444 69.9045 95.3885 68.3615V68.2758L96.9334 64.8468C99.4224 62.5323 100.967 60.7321 101.482 59.1033C104.143 58.5033 104.658 52.3311 99.3366 53.1027V53.1027Z" fill="url(#paint6_linear)"/>
<path d="M95.275 68.0932C94.4244 69.6623 92.8933 71.0571 92.7232 71.2314C92.8083 71.493 93.1485 71.493 93.3186 71.5801C92.7232 72.1903 92.5531 72.3647 92.1278 73.1492C91.7025 73.7594 90.5117 75.5029 91.7876 78.0309H90.5967C89.7461 77.9437 88.9806 78.0309 88.215 78.1181C88.0449 78.1181 87.9599 78.2052 87.7897 78.2052C87.3644 78.2924 86.9391 78.3796 86.5989 78.5539C86.4288 78.6411 86.1736 78.7283 86.0035 78.8154C85.9184 78.8154 85.8334 78.9026 85.7483 78.9026C85.6633 78.9026 85.5782 78.9898 85.4931 79.077C85.4081 78.9898 85.323 78.9898 85.238 79.077C85.1529 78.9898 84.9828 78.9898 84.8977 78.9026H84.8127C84.7276 78.8155 84.5575 78.8154 84.4724 78.7283H84.3874C84.3023 78.7283 84.2172 78.6411 84.1322 78.6411C84.0471 78.6411 84.0471 78.6411 83.9621 78.5539C83.877 78.5539 83.7069 78.4668 83.6218 78.4668C83.4517 78.3796 83.3666 78.3796 83.1965 78.2924H83.1115L82.3459 78.0309H82.2609C82.1758 78.0309 82.0057 77.9437 81.9206 77.9437C81.8356 77.9437 81.6654 77.8566 81.5804 77.8566C81.4103 77.8566 81.3252 77.7694 81.1551 77.7694H81.07C80.985 77.7694 80.8148 77.6822 80.7298 77.6822C80.5597 77.6822 80.4746 77.595 80.3045 77.595L79.1987 77.3335H79.1137C79.0286 77.3335 78.8585 77.3335 78.7734 77.2463C78.6884 77.2463 78.6033 77.2463 78.4332 77.1592H76.9872C76.817 77.1592 76.732 77.1592 76.5619 77.072H74.6055C74.6055 76.9848 74.6055 76.8977 74.5204 76.8977C74.5204 76.8105 74.4354 76.7233 74.4354 76.6361C74.3503 76.4618 74.3503 76.2874 74.2652 76.1131C74.1802 75.8516 74.0101 75.5901 73.925 75.3285L73.8399 75.2414L73.7549 75.1542C73.6698 75.067 73.6698 75.067 73.6698 74.9799C73.5848 74.8055 73.4997 74.7183 73.4146 74.6312C73.3296 74.544 73.3296 74.4568 73.2445 74.4568C73.0744 74.2825 72.9893 74.1081 72.8192 73.9338L72.564 73.6723L72.2238 73.3236L71.8836 72.9749L71.5433 72.6262L71.2031 72.2775L70.8629 71.9288L70.6077 71.6673C69.3318 70.0982 68.3961 68.1804 68.1409 66.0011C67.9708 64.6063 68.1409 63.0372 68.6513 61.2938C68.6513 61.2066 68.7364 61.1194 68.7364 60.9451C67.8858 69.7495 73.3296 71.4058 78.8585 70.7956C78.5182 71.1443 78.0929 71.493 77.7527 71.7545V71.8416C79.2838 72.1032 80.7298 71.4058 82.0907 70.7956C81.8356 71.2314 81.4953 71.5801 81.1551 71.9288V72.016C83.1965 72.016 84.8977 70.7084 86.4288 69.488C86.3437 69.7495 86.2587 69.9238 86.1736 70.1854C86.1736 70.2725 86.1736 70.2725 86.2587 70.2725C87.7047 69.8367 88.8105 68.8778 89.7461 67.6574C90.5967 66.3498 92.383 66.1754 93.5738 67.1343L95.275 68.0932V68.0932Z" fill="url(#paint7_linear)"/>
<path d="M75.8183 63.2489C75.2989 62.6468 75.0392 61.7868 75.1258 60.9267C74.8661 61.0987 74.6063 61.1847 74.3466 61.3567C74.3466 61.3567 74.2601 61.3567 74.2601 61.2707C74.3466 60.4966 74.6929 59.8086 74.9526 59.1205L73.9138 59.3785C73.8272 59.3785 73.8272 59.3785 73.8272 59.2925C74.6929 58.0024 76.078 57.2283 77.4631 56.7123V56.6263C77.5497 56.4543 77.5497 56.2823 77.5497 56.1963C77.1169 54.6481 73.9138 55.9382 72.3555 57.7444C70.8838 59.4646 70.5376 61.7008 70.9704 63.5929C71.4033 65.5711 72.7018 67.1192 74.6063 67.2913C75.0392 67.2913 75.472 67.2913 75.9049 67.2053H75.9915C76.2512 67.1192 76.5974 67.0332 76.8572 66.8612C77.7228 66.4312 78.2423 65.3991 77.9826 64.281C77.2034 64.023 76.3377 63.937 75.8183 63.2489V63.2489Z" fill="url(#paint8_linear)"/>
<path opacity="0.71" d="M103.434 55.7061V55.0344C103.346 54.7826 103.257 54.6147 103.169 54.3628C103.08 54.1949 102.992 54.1109 102.903 54.027C102.815 53.8591 102.726 53.8591 102.726 53.7751C102.726 53.6912 102.638 53.6912 102.638 53.6072C102.55 53.5232 102.461 53.4393 102.284 53.3553C102.196 53.2714 102.107 53.2714 102.019 53.1874C101.4 52.8516 100.427 52.6837 99.277 52.8516C99.277 52.8516 97.0658 53.1035 96.0929 53.1035C94.7661 53.1874 93.5279 53.1874 92.9087 53.1874H92.5549C95.7391 54.1109 90.5206 61.9187 98.6579 62.7583C99.7192 61.7508 100.427 60.8273 100.958 59.9878C101.046 59.9038 101.046 59.8199 101.134 59.7359C101.134 59.652 101.223 59.568 101.223 59.568C101.223 59.484 101.311 59.4001 101.311 59.4001C101.311 59.3161 101.4 59.3161 101.4 59.2322V59.1482C101.4 59.0643 101.488 58.9803 101.488 58.9803H101.665C101.754 58.9803 101.842 58.8964 101.93 58.8964L102.019 58.8124C102.019 58.8124 102.107 58.8124 102.107 58.7284C102.196 58.6445 102.284 58.5605 102.373 58.5605C102.726 58.2247 103.08 57.721 103.257 57.2173C103.346 56.5456 103.434 56.1258 103.434 55.7061V55.7061Z" fill="url(#paint9_linear)"/>
<path opacity="0.83" d="M81.8803 53.9288C82.0511 53.9288 82.3073 53.9288 82.4781 53.8421C82.5635 53.8421 82.5635 53.8421 82.5635 53.9288C82.0511 55.0562 81.5387 56.1835 81.7095 57.4843C81.7949 58.0046 81.9657 58.5249 82.2219 58.9585C82.3073 59.0452 82.3073 59.1319 82.3927 59.1319C83.3321 54.8827 91.1888 57.4843 92.5552 53.4085C90.164 52.9749 88.1998 50.5468 87.602 49.3328C87.5166 49.1594 87.4312 49.1594 87.2604 49.1594C87.0042 49.2461 86.6627 49.4195 86.0649 49.6797H85.9795C85.8087 49.7664 85.6379 49.7664 85.4671 49.8531C84.0153 50.807 82.7343 52.2812 81.8803 53.9288V53.9288Z" fill="url(#paint10_linear)"/>
<path d="M87.8858 52.809C86.6309 52.9806 86.1142 55.8116 85.3022 56.4121C86.7048 55.8974 88.4025 55.8116 89.805 55.2969C90.0265 53.4095 88.9931 52.6374 87.8858 52.809V52.809Z" fill="url(#paint11_linear)"/>
<path d="M88.7131 54.5989C87.9563 54.6853 87.5359 56.0668 87.1155 56.4121C88.0404 56.2394 88.9654 56.0668 89.8062 55.8941C89.9744 55.0306 89.3858 54.5989 88.7131 54.5989V54.5989Z" fill="url(#paint12_linear)"/>
<path opacity="0.8" d="M94.6596 68.1296C95.0947 68.3077 95.6168 68.1296 95.8778 67.6841C95.8778 67.5951 95.9648 67.5951 95.9648 67.506L96.2259 66.9715C96.661 65.9024 97.0091 65.1007 97.0091 65.1007C99.5326 62.6953 101.099 60.8245 101.621 59.1319C96.2259 62.6062 91.2659 59.0428 88.2203 61.27L87.7852 61.7154C86.6539 62.8735 87.002 64.8334 88.4813 65.457L94.6596 68.1296V68.1296Z" fill="url(#paint13_radial)"/>
<path d="M99.0897 52.8182C98.9954 52.9816 98.9011 53.1449 98.9011 53.3083C99.0897 53.4717 99.2783 53.5533 99.4668 53.5533C99.7497 53.635 99.844 53.7167 99.9383 53.8801C100.033 54.0434 100.033 54.1251 100.127 54.2884C100.127 54.3701 100.221 54.3701 100.221 54.4518C101.635 54.8602 103.616 55.0236 103.333 56.4121C103.804 54.6968 102.673 52.4915 99.0897 52.8182V52.8182Z" fill="url(#paint14_linear)"/>
<defs>
<linearGradient id="paint0_linear" x1="71.8766" y1="45.2595" x2="100.49" y2="89.323" gradientUnits="userSpaceOnUse">
<stop stop-color="#D6D6D6"/>
<stop offset="0.03" stop-color="#E0E0E0"/>
<stop offset="0.09" stop-color="#ECEBEB"/>
<stop offset="0.15" stop-color="#EFEFEF"/>
<stop offset="0.64" stop-color="#EFEFEF"/>
<stop offset="0.73" stop-color="#EFEFEF"/>
<stop offset="0.79" stop-color="#EAEAEA"/>
<stop offset="0.88" stop-color="#DADADA"/>
<stop offset="0.98" stop-color="#C1C1C1"/>
<stop offset="1" stop-color="#BABABA"/>
</linearGradient>
<linearGradient id="paint1_linear" x1="72.1353" y1="86.1828" x2="109.017" y2="91.7499" gradientUnits="userSpaceOnUse">
<stop offset="0.1" stop-color="#641724"/>
<stop offset="0.21" stop-color="#711825"/>
<stop offset="0.42" stop-color="#931B26"/>
<stop offset="0.58" stop-color="#B31E28"/>
<stop offset="1" stop-color="#D2202F"/>
</linearGradient>
<linearGradient id="paint2_linear" x1="74.2968" y1="85.4666" x2="105.871" y2="90.2602" gradientUnits="userSpaceOnUse">
<stop offset="0.08" stop-color="#321724"/>
<stop offset="0.19" stop-color="#381724" stop-opacity="0.88"/>
<stop offset="0.35" stop-color="#4B1826" stop-opacity="0.71"/>
<stop offset="0.53" stop-color="#681A28" stop-opacity="0.51"/>
<stop offset="0.74" stop-color="#921D2B" stop-opacity="0.29"/>
<stop offset="0.95" stop-color="#C6202E" stop-opacity="0.05"/>
<stop offset="1" stop-color="#D2202F" stop-opacity="0"/>
</linearGradient>
<linearGradient id="paint3_linear" x1="77.8248" y1="107.518" x2="80.2905" y2="89.0066" gradientUnits="userSpaceOnUse">
<stop stop-color="#95191D" stop-opacity="0"/>
<stop offset="1" stop-color="#4A191D"/>
</linearGradient>
<linearGradient id="paint4_linear" x1="85.243" y1="84.5257" x2="102.789" y2="84.5257" gradientUnits="userSpaceOnUse">
<stop stop-color="#B59F2C"/>
<stop offset="0.87" stop-color="#F0EEC5"/>
</linearGradient>
<linearGradient id="paint5_linear" x1="76.6766" y1="83.3111" x2="88.4622" y2="77.9677" gradientUnits="userSpaceOnUse">
<stop stop-color="#B59F2C"/>
<stop offset="0.87" stop-color="#F0EEC5"/>
</linearGradient>
<linearGradient id="paint6_linear" x1="72.2324" y1="74.1307" x2="102.057" y2="51.628" gradientUnits="userSpaceOnUse">
<stop stop-color="#25130E"/>
<stop offset="0.02" stop-color="#2A1711"/>
<stop offset="0.46" stop-color="#AC8864"/>
<stop offset="0.66" stop-color="#E0B585"/>
<stop offset="0.8" stop-color="#E9C08F"/>
<stop offset="1" stop-color="#FBD6A4"/>
</linearGradient>
<linearGradient id="paint7_linear" x1="91.8046" y1="63.29" x2="65.3304" y2="76.1015" gradientUnits="userSpaceOnUse">
<stop stop-color="#E0B585" stop-opacity="0"/>
<stop offset="0.1" stop-color="#B38F68" stop-opacity="0.13"/>
<stop offset="0.22" stop-color="#89694D" stop-opacity="0.27"/>
<stop offset="0.34" stop-color="#654B36" stop-opacity="0.41"/>
<stop offset="0.45" stop-color="#493325" stop-opacity="0.56"/>
<stop offset="0.57" stop-color="#362218" stop-opacity="0.7"/>
<stop offset="0.69" stop-color="#2A1710" stop-opacity="0.85"/>
<stop offset="0.81" stop-color="#26140E"/>
<stop offset="1" stop-color="#25130E"/>
</linearGradient>
<linearGradient id="paint8_linear" x1="71.36" y1="60.7547" x2="80.1441" y2="62.1223" gradientUnits="userSpaceOnUse">
<stop offset="0.07" stop-color="#25130E"/>
<stop offset="0.33" stop-color="#351C13" stop-opacity="0.78"/>
<stop offset="0.79" stop-color="#5A321E" stop-opacity="0.4"/>
</linearGradient>
<linearGradient id="paint9_linear" x1="93.3687" y1="58.7872" x2="103.061" y2="54.4881" gradientUnits="userSpaceOnUse">
<stop offset="0.21" stop-color="#E0B585" stop-opacity="0.2"/>
<stop offset="0.23" stop-color="#DDB283" stop-opacity="0.22"/>
<stop offset="0.47" stop-color="#AC8461" stop-opacity="0.46"/>
<stop offset="0.68" stop-color="#886249" stop-opacity="0.67"/>
<stop offset="0.85" stop-color="#724E3A" stop-opacity="0.85"/>
<stop offset="0.96" stop-color="#6A4634" stop-opacity="0.96"/>
</linearGradient>
<linearGradient id="paint10_linear" x1="81.0178" y1="54.215" x2="93.17" y2="54.215" gradientUnits="userSpaceOnUse">
<stop stop-color="#5A321E" stop-opacity="0.1"/>
<stop offset="0.2" stop-color="#4D2A19" stop-opacity="0.34"/>
<stop offset="0.49" stop-color="#412315" stop-opacity="0.66"/>
<stop offset="0.78" stop-color="#3D2114"/>
</linearGradient>
<linearGradient id="paint11_linear" x1="85.3392" y1="54.6106" x2="89.8493" y2="54.6106" gradientUnits="userSpaceOnUse">
<stop stop-color="#5A321E" stop-opacity="0.1"/>
<stop offset="0.3" stop-color="#452618" stop-opacity="0.28"/>
<stop offset="0.73" stop-color="#2E1810" stop-opacity="0.54"/>
<stop offset="1" stop-color="#25130E" stop-opacity="0.7"/>
</linearGradient>
<linearGradient id="paint12_linear" x1="87.1239" y1="55.5314" x2="89.8567" y2="55.5314" gradientUnits="userSpaceOnUse">
<stop stop-color="#25130E" stop-opacity="0.2"/>
<stop offset="1" stop-color="#25130E"/>
</linearGradient>
<radialGradient id="paint13_radial" cx="0" cy="0" r="1" gradientUnits="userSpaceOnUse" gradientTransform="translate(101.004 56.6229) rotate(-11.2661) scale(14.2923 10.5679)">
<stop offset="0.39" stop-color="#47210E"/>
<stop offset="0.53" stop-color="#4A2410" stop-opacity="0.76"/>
<stop offset="0.63" stop-color="#532C17" stop-opacity="0.6"/>
<stop offset="0.71" stop-color="#623B23" stop-opacity="0.46"/>
<stop offset="0.79" stop-color="#785034" stop-opacity="0.34"/>
<stop offset="0.86" stop-color="#936B49" stop-opacity="0.22"/>
<stop offset="0.93" stop-color="#B68C64" stop-opacity="0.11"/>
<stop offset="1" stop-color="#E0B585" stop-opacity="0"/>
</radialGradient>
<linearGradient id="paint14_linear" x1="99.184" y1="55.6688" x2="103.335" y2="52.9955" gradientUnits="userSpaceOnUse">
<stop offset="0.14" stop-color="#5A321E" stop-opacity="0.3"/>
<stop offset="0.23" stop-color="#532E1C" stop-opacity="0.37"/>
<stop offset="0.73" stop-color="#311A12" stop-opacity="0.71"/>
<stop offset="1" stop-color="#25130E" stop-opacity="0.9"/>
</linearGradient>
</defs>
</svg>
