<svg width="180" height="180" viewBox="0 0 180 180" fill="none" xmlns="http://www.w3.org/2000/svg">
<path d="M72.967 69.4615V91.8232H84.8663C88.2661 91.8232 88.8781 92.9542 88.9291 94.0509V94.7363H90.748V94.0509C90.748 93.5025 90.867 91.8232 95.1337 91.8232H107.033V69.5472H96.1366C94.5542 69.4905 92.9765 69.7526 91.4959 70.3183C90.8185 70.7322 90.266 71.3247 89.898 72.0319C89.524 71.3235 88.9657 70.7312 88.2831 70.3183C86.9187 69.7406 85.4436 69.4772 83.9654 69.5472L72.967 69.4615ZM92.2269 71.4835C93.4797 71.0343 94.809 70.8421 96.1366 70.9181H105.775V90.3667H95.2357C93.6045 90.2309 91.9755 90.6535 90.612 91.5662V74.8592C90.5583 74.1953 90.6794 73.5288 90.9629 72.9271C91.2465 72.3254 91.6825 71.8097 92.2269 71.4321V71.4835ZM89.1671 74.9106V91.5148C87.8849 90.6993 86.3789 90.3153 84.8663 90.4181H74.412V70.9523H83.9654C85.1874 70.8782 86.4109 71.0711 87.5522 71.5178C88.0978 71.8941 88.5348 72.4096 88.8185 73.0116C89.1022 73.6136 89.2225 74.2807 89.1671 74.9449V74.9106Z" fill="#002046"/>
<path d="M107.839 93.7995H92.348L92.1658 94.2538C91.9007 94.9702 91.4202 95.6167 89.7303 95.6167C88.0404 95.6167 87.5765 94.9178 87.2948 94.2538L87.1126 93.7995H71.6547V71.2593H70.263V71.9408L68.921 71.5039C68.8505 71.2662 68.7187 71.0538 68.5404 70.8904C68.3622 70.727 68.1444 70.619 67.9113 70.5784C67.6783 70.5378 67.4391 70.5663 67.2205 70.6606C67.0019 70.7549 66.8124 70.9114 66.6732 71.1126C66.5339 71.3138 66.4503 71.5518 66.4318 71.8001C66.4132 72.0485 66.4604 72.2973 66.568 72.5191C66.6757 72.7408 66.8396 72.9266 67.0415 73.0559C67.2434 73.1852 67.4754 73.2528 67.7116 73.2512C68.0035 73.2482 68.285 73.1368 68.5068 72.9367L70.263 73.5133V75.2606L68.9376 75.016C68.8465 74.7709 68.6867 74.5609 68.4795 74.4142C68.2722 74.2674 68.0274 74.1909 67.7778 74.1948C67.4395 74.1948 67.115 74.3365 66.8758 74.5889C66.6365 74.8412 66.5021 75.1834 66.5021 75.5402C66.5021 75.897 66.6365 76.2393 66.8758 76.4916C67.115 76.7439 67.4395 76.8856 67.7778 76.8856C67.9491 76.8867 68.1186 76.85 68.2756 76.7777C68.4325 76.7055 68.5734 76.5994 68.6891 76.4663L70.263 76.7633V78.598H68.8879C68.7763 78.3977 68.6163 78.2323 68.4241 78.1187C68.232 78.0051 68.0147 77.9474 67.7944 77.9515C67.6158 77.9299 67.4349 77.9484 67.2635 78.0057C67.0922 78.0631 66.9342 78.1579 66.8001 78.2842C66.6659 78.4104 66.5585 78.5651 66.485 78.7381C66.4115 78.9111 66.3735 79.0986 66.3735 79.2882C66.3735 79.4778 66.4115 79.6652 66.485 79.8383C66.5585 80.0113 66.6659 80.166 66.8001 80.2922C66.9342 80.4184 67.0922 80.5133 67.2635 80.5706C67.4349 80.6279 67.6158 80.6464 67.7944 80.6249C67.996 80.6279 68.1952 80.5785 68.3744 80.481C68.5536 80.3835 68.7072 80.2408 68.8216 80.0657H70.263V82.0751H68.8548C68.7375 81.8976 68.5815 81.7525 68.3998 81.6521C68.2181 81.5517 68.0161 81.499 67.811 81.4985C67.5884 81.4991 67.3699 81.5612 67.1771 81.6784C66.9843 81.7957 66.8239 81.9641 66.7119 82.167C66.5999 82.3698 66.5402 82.6 66.5387 82.8347C66.5372 83.0695 66.5939 83.3005 66.7032 83.505C66.8126 83.7094 66.9708 83.8801 67.162 84.0002C67.3533 84.1202 67.571 84.1853 67.7936 84.1892C68.0161 84.193 68.2357 84.1354 68.4306 84.022C68.6255 83.9086 68.7888 83.7434 68.9045 83.5429H70.263V85.395L68.7222 85.6746C68.5477 85.4795 68.3219 85.3439 68.0738 85.2852C67.8257 85.2264 67.5666 85.2472 67.3298 85.3449C67.093 85.4425 66.8892 85.6126 66.7447 85.8332C66.6002 86.0539 66.5215 86.315 66.5187 86.5832C66.514 86.8957 66.6126 87.2003 66.7977 87.4445C66.9827 87.6887 67.2426 87.8573 67.5327 87.9214C67.8228 87.9855 68.125 87.941 68.3875 87.7957C68.6499 87.6503 68.8561 87.4131 68.9707 87.1248L70.263 86.8977V88.645L68.6062 89.2041C68.3766 89.0065 68.0907 88.8958 67.7944 88.8896C67.6158 88.868 67.4349 88.8865 67.2635 88.9438C67.0922 89.0012 66.9342 89.0961 66.8001 89.2223C66.6659 89.3485 66.5585 89.5032 66.485 89.6762C66.4115 89.8492 66.3735 90.0367 66.3735 90.2263C66.3735 90.4159 66.4115 90.6033 66.485 90.7764C66.5585 90.9494 66.6659 91.1041 66.8001 91.2303C66.9342 91.3565 67.0922 91.4514 67.2635 91.5087C67.4349 91.5661 67.6158 91.5846 67.7944 91.563C68.0682 91.5657 68.3353 91.473 68.554 91.2992C68.7727 91.1254 68.9309 90.8803 69.0039 90.602L70.2796 90.2001V91.9474L68.424 92.8036C68.2212 92.651 67.9772 92.5713 67.7281 92.5764C67.4844 92.5734 67.245 92.6441 67.0382 92.7802C66.8314 92.9162 66.6659 93.1119 66.5612 93.344C66.4565 93.5762 66.4171 93.8351 66.4476 94.0901C66.4781 94.3451 66.5773 94.5856 66.7333 94.7831C66.8893 94.9805 67.0957 95.1267 67.3281 95.2044C67.5604 95.282 67.809 95.2878 68.0444 95.2211C68.2798 95.1544 68.4921 95.0179 68.6563 94.8279C68.8204 94.638 68.9296 94.4023 68.9707 94.149L70.2796 93.5549V95.1624H86.251C86.6182 95.7674 87.1388 96.2518 87.7538 96.5606C88.3688 96.8695 89.0535 96.9904 89.7303 96.9097C90.4071 96.9904 91.0918 96.8695 91.7068 96.5606C92.3217 96.2518 92.8423 95.7674 93.2095 95.1624H109.231V71.2593H107.839V93.7995Z" fill="#002046"/>
<path d="M86.0611 65.0578C86.0611 65.6764 83.1307 66.1648 79.5141 66.1648C75.8974 66.1648 72.967 65.6764 72.967 65.0578C72.967 64.4392 75.8974 63.967 79.6068 63.967C83.3162 63.967 86.1539 64.4554 86.1539 65.0578H86.0611Z" fill="#002046"/>
<path d="M79.1168 62.04C81.2024 61.9652 83.2863 62.2289 85.2839 62.8204L87.2528 56.7685L86.9599 56.6729L83.7055 58.9503V59.1892L84.4866 59.5237C84.6493 59.6033 84.6493 59.7307 84.5679 59.7944L82.3712 61.5463H82.1759L80.744 59.3644C80.6464 59.2211 80.744 59.0777 80.8579 59.0618L81.8505 58.8866V58.6477L79.247 55.1758H78.8239L76.2529 58.7274V58.9663L77.2455 59.1414C77.4245 59.1414 77.4571 59.3007 77.3594 59.444L75.8624 61.5463H75.6672L73.7145 59.8263C73.6332 59.8263 73.7145 59.6352 73.7145 59.5555L74.5118 59.2211V58.9822L71.0622 56.7047L70.7693 56.8003L72.8033 62.8681C74.8448 62.2446 76.9796 61.9646 79.1168 62.04V62.04Z" fill="#002046"/>
<path d="M94.945 108.473C94.945 109.394 92.7348 110.121 90.007 110.121C87.2792 110.121 85.0549 109.394 85.0549 108.473C85.0549 107.551 87.2792 106.824 90.007 106.824C92.7348 106.824 94.945 107.576 94.945 108.473Z" fill="#002046"/>
<path d="M95.3705 102.408V102.599L96.2795 102.898C96.4465 102.898 96.4465 103.074 96.2795 103.129L93.9049 104.597H93.6823L92.0127 102.775C91.9841 102.756 91.9636 102.731 91.9537 102.704C91.9437 102.676 91.9446 102.647 91.9562 102.62C91.9679 102.593 91.9899 102.569 92.0196 102.551C92.0493 102.532 92.0855 102.521 92.124 102.517L93.2556 102.381V102.177L90.3616 99.1319H89.8978L86.9667 102.164V102.367L88.0983 102.503C88.3024 102.503 88.3395 102.653 88.2096 102.762L86.54 104.583H86.3174L84.0355 103.129C83.9428 103.129 83.9428 102.966 84.0355 102.898L84.926 102.599V102.408L80.9746 100.451L80.6592 100.546L82.9781 105.725C85.2555 105.22 87.6313 104.995 90.0091 105.059C92.3808 104.995 94.7506 105.22 97.0216 105.725L99.3405 100.546L99.0251 100.451L95.3705 102.408Z" fill="#002046"/>
<path d="M107.033 65.0659C107.033 65.68 104.067 66.1648 100.43 66.1648C96.7929 66.1648 93.8459 65.68 93.8459 65.0659C93.8459 64.4518 96.8116 63.967 100.43 63.967C104.048 63.967 107.033 64.468 107.033 65.0659Z" fill="#002046"/>
<path d="M101.005 62.04C103.097 61.9637 105.187 62.2275 107.191 62.8204L109.231 56.7685L108.953 56.6729L105.689 58.9503V59.1892L106.472 59.5237C106.636 59.6033 106.636 59.7307 106.57 59.7944L104.367 61.5463H104.171L102.702 59.4281C102.588 59.2848 102.702 59.1414 102.8 59.1255L103.796 58.9503V58.7114L101.217 55.1758H100.809L98.2144 58.7274V58.9663L99.2262 59.1414C99.3894 59.1414 99.4384 59.3007 99.3242 59.444L97.8553 61.5463H97.6595L95.701 59.8103C95.6194 59.7307 95.6194 59.6192 95.701 59.5396L96.4844 59.2211V58.9822L93.0245 56.7047L92.7471 56.8003L94.7871 62.8681C96.7847 62.275 98.8697 62.0112 100.956 62.0878L101.005 62.04Z" fill="#002046"/>
<path d="M78.4612 74.7478C78.4625 74.4911 78.4263 74.2366 78.3547 73.9997C78.2831 73.7628 78.1776 73.5484 78.0446 73.3694C77.6404 72.924 77.1286 72.7089 76.6136 72.7678H75.2008V73.0435C75.5268 73.0435 75.5631 73.0435 75.5631 73.8455V76.0762C75.5631 76.803 75.563 76.8531 75.1646 76.9032V77.1539H76.4144C77.5374 77.1539 78.4612 76.427 78.4612 74.6476V74.7478ZM76.6499 76.803C76.4325 76.803 76.3057 76.6777 76.3057 76.0762V73.5699C76.3057 73.3944 76.3057 73.244 76.3057 73.244C76.3711 73.2217 76.4395 73.2217 76.505 73.244C76.9397 73.244 77.465 73.645 77.465 75.0987C77.465 76.5524 77.0302 76.9283 76.6136 76.9283L76.6499 76.803Z" fill="#002046"/>
<path d="M79.5537 77.1525C79.7021 77.163 79.85 77.1121 79.988 77.003C80.1259 76.8939 80.2508 76.7289 80.3547 76.5188C80.4586 76.3087 80.5392 76.0579 80.5913 75.7826C80.6434 75.5073 80.666 75.2135 80.6574 74.92C80.6659 74.638 80.6446 74.3557 80.5951 74.0908C80.5455 73.8259 80.4687 73.5842 80.3695 73.3811C80.2703 73.1781 80.1509 73.0179 80.0188 72.9109C79.8867 72.8039 79.7449 72.7524 79.6022 72.7595C79.4511 72.7495 79.3006 72.801 79.1599 72.9108C79.0193 73.0207 78.8916 73.1865 78.7847 73.3981C78.6778 73.6097 78.594 73.8624 78.5385 74.1408C78.483 74.4191 78.457 74.717 78.462 75.016C78.4587 75.3005 78.4847 75.5833 78.5385 75.8471C78.5923 76.111 78.6728 76.3502 78.775 76.5503C78.8772 76.7504 78.999 76.907 79.1329 77.0105C79.2668 77.1141 79.41 77.1624 79.5537 77.1525V77.1525ZM79.5537 73.0956C79.8448 73.0956 80.0752 73.8157 80.0752 75.112C80.0752 76.4083 79.9175 76.8164 79.6386 76.8164C79.3596 76.8164 79.1049 75.9762 79.1049 74.8C79.1049 73.6237 79.3111 73.0956 79.5537 73.0956Z" fill="#002046"/>
<path d="M82.8569 72.7583V73.0346C83.1688 73.0346 83.1985 73.0346 83.1688 74.0142V75.3705C83.1688 75.9985 83.1688 76.3501 83.1688 76.551C83.1688 76.752 83.0797 76.8776 82.8718 76.8776V77.1539H83.8667V76.8776C83.5994 76.8776 83.5252 76.8776 83.4955 76.551C83.4795 76.1832 83.4795 75.8138 83.4955 75.4459V73.9388L84.2231 77.0785H84.4459L85.2181 73.6876V76.0738C85.2181 76.8273 85.2181 76.8525 84.9062 76.8776V77.1539H86.1536V76.8776C85.8715 76.8776 85.8566 76.8776 85.8418 76.0738V73.8132C85.8418 73.1099 85.8418 73.0848 86.1388 73.0346V72.7583H85.1735L84.5647 75.4459L83.8667 72.7583H82.8569Z" fill="#002046"/>
<path d="M87.2525 76.8776C87.0125 76.8776 86.9872 76.8776 86.9872 76.0738V73.8383C86.9872 73.1099 86.9872 73.0597 87.2525 73.0346V72.7583H86.1536V73.0346C86.3809 73.0346 86.4062 73.0346 86.4062 73.8383V76.0738C86.4062 76.8022 86.4062 76.8525 86.1536 76.9027V77.1539H87.2525V76.8776Z" fill="#002046"/>
<path d="M77.8919 81.0625C77.8749 80.7384 77.8749 80.4125 77.8919 80.0884V79.1706L79.0425 81.5495H79.3072V79.6764C79.2958 79.3519 79.2958 79.0267 79.3072 78.7023C79.3072 78.5337 79.3993 78.4588 79.5604 78.4588V78.2528H78.7664V78.4588C78.9735 78.4588 79.0541 78.4588 79.0771 78.7023C79.0885 79.0267 79.0885 79.3519 79.0771 79.6764V80.3507L78.053 78.2528H77.3625V78.4588C77.4073 78.4481 77.4531 78.4562 77.4954 78.4824C77.5377 78.5087 77.5752 78.5521 77.6042 78.6087C77.6617 78.7398 77.6617 78.8147 77.6617 79.1893V80.1072C77.6729 80.4253 77.6729 80.7443 77.6617 81.0625C77.6617 81.2498 77.5697 81.3247 77.4316 81.3247V81.5308H78.2025V81.3247C77.9954 81.3247 77.9149 81.3247 77.9034 81.0812L77.8919 81.0625Z" fill="#002046"/>
<path d="M81.6163 78.4577V78.2528H79.5603V78.4577C79.8675 78.4577 79.9857 78.4577 80.1984 78.9233L81.4745 81.5495H81.9472C82.4434 80.5251 83.2233 79.035 83.2469 78.9605C83.5069 78.5135 83.5778 78.4949 83.9559 78.4577V78.2528H82.4198V78.4577H82.6089C82.8925 78.4577 82.9397 78.5508 82.7979 78.8488C82.6561 79.1468 82.3016 80.0408 82.089 80.4692C81.8526 79.9849 81.3564 78.9792 81.2382 78.6998C81.12 78.4204 81.2382 78.4949 81.4036 78.4577H81.6163Z" fill="#002046"/>
<path d="M85.0195 81.3394C84.5587 81.3394 84.2751 80.7668 84.1687 80.4806H83.9561C83.9561 80.8241 84.0801 81.0913 84.1156 81.3394L84.4169 81.4539C84.5812 81.52 84.7555 81.5524 84.9309 81.5493C85.6753 81.5493 86.1539 81.0913 86.1539 80.4424C86.1539 79.7935 85.7639 79.6027 85.3208 79.3737H85.2322C84.9132 79.221 84.7182 79.0683 84.7182 78.8202C84.7182 78.6987 84.763 78.5822 84.8428 78.4963C84.9226 78.4104 85.0308 78.3622 85.1436 78.3622C85.5158 78.3622 85.693 78.7248 85.7994 79.0683H85.9943C85.9943 78.7248 85.9943 78.4767 85.888 78.2668H85.6576C85.5104 78.2481 85.3617 78.2481 85.2145 78.2668C85.0734 78.2452 84.9296 78.256 84.7926 78.2985C84.6557 78.341 84.5286 78.4142 84.4198 78.5133C84.311 78.6125 84.2229 78.7353 84.1613 78.8737C84.0997 79.0121 84.066 79.163 84.0624 79.3164C84.0624 79.8698 84.5055 80.137 84.9132 80.3279C85.1968 80.4806 85.374 80.6523 85.374 80.9386C85.374 81.2248 85.1968 81.4539 84.9486 81.4539L85.0195 81.3394Z" fill="#002046"/>
<path d="M76.2637 84.9108C76.7184 84.9108 76.7942 84.9108 76.7942 85.3374V86.4881C76.7942 86.863 76.7942 86.8888 76.2637 86.9018V87.044H78.4615V86.9018C77.9815 86.9018 77.931 86.9018 77.931 86.4881V85.3374C77.931 84.9625 77.931 84.9367 78.4615 84.9108V84.8462H76.2637V84.9108Z" fill="#002046"/>
<path d="M79.3605 86.7049C79.3221 86.7928 79.2299 86.8053 79.1684 86.8053C79.1203 86.8216 79.0706 86.8216 79.0224 86.8053C78.984 86.8053 78.984 86.6923 78.984 86.5165V85.3611C78.984 84.9969 78.984 84.9717 79.1454 84.9466V84.8462H78.4768V84.9718C78.6151 84.9718 78.6305 84.9718 78.6305 85.3862V86.5039C78.6305 86.8681 78.6305 86.8933 78.4614 86.9058V87.044H79.4835L79.5603 86.4537H79.4681C79.4507 86.58 79.4136 86.6967 79.3605 86.7928V86.7049Z" fill="#002046"/>
<path d="M83.4718 86.7049C83.3899 86.7432 83.2944 86.7719 83.1913 86.7892C83.0882 86.8065 82.9796 86.812 82.8724 86.8053C82.7279 86.8216 82.5788 86.8216 82.4343 86.8053C82.3191 86.8053 82.3191 86.6923 82.3191 86.5165V85.3611C82.3191 84.9969 82.3191 84.9717 82.8032 84.9466V84.8462H80.7053V84.9718C81.1203 84.9718 81.1664 84.9718 81.1664 85.3862V86.5039C81.1664 86.8681 81.1664 86.8933 80.6592 86.9058V87.044H83.7253L83.9559 86.4537H83.6792C83.6228 86.5767 83.5208 86.6921 83.3795 86.7928L83.4718 86.7049Z" fill="#002046"/>
<path d="M85.374 84.9086H85.4685C85.6103 84.9086 85.6339 84.9086 85.5631 85.1708C85.4922 85.4331 85.3149 85.97 85.2086 86.2448C85.0904 85.9201 84.8423 85.2583 84.7832 85.0709C84.7241 84.8836 84.7832 84.9336 84.8659 84.9086H84.9841V84.8462H83.9561V84.971C84.1097 84.971 84.1687 84.971 84.2751 85.2957L84.9013 87.044H85.1495C85.3858 86.3696 85.7757 85.3581 85.7994 85.3207C85.9175 85.0085 85.9648 84.996 86.1539 84.971V84.8462H85.374V84.9086Z" fill="#002046"/>
<path d="M93.7042 76.8776C93.4307 76.8776 93.3396 76.8776 93.3244 76.551C93.3053 76.1833 93.3053 75.8136 93.3244 75.4459V73.9388L94.0688 77.0785H94.2967L95.0715 73.6876V76.0738C95.0715 76.8273 95.0715 76.8525 94.7524 76.8776V77.1539H96.0438V76.8776C95.7399 76.8776 95.7399 76.8776 95.7247 76.0738V73.8132C95.7247 73.1099 95.7247 73.0848 96.0438 73.0346V72.7583H95.0563L94.4334 75.4459L93.7042 72.7583H92.7471V73.0346C93.0813 73.0346 93.1117 73.0346 93.0813 74.0142V75.3705C93.0813 75.9985 93.0813 76.3501 93.0813 76.551C93.0813 76.752 92.975 76.8776 92.7775 76.8776V77.1539H93.7953L93.7042 76.8776Z" fill="#002046"/>
<path d="M97.1428 76.8776C96.9155 76.8776 96.8902 76.8776 96.8902 76.0738V73.8383C96.8902 73.1099 96.8902 73.0597 97.1428 73.0346V72.7583H96.0439V73.0346C96.2713 73.0346 96.3092 73.0346 96.3092 73.8383V76.0738C96.3092 76.8022 96.3092 76.8525 96.0439 76.9027V77.1539H97.1428V76.8776Z" fill="#002046"/>
<path d="M99.6267 73.982V75.2058C99.6381 75.6384 99.6381 76.072 99.6267 76.5045C99.6267 76.7293 99.5352 76.8292 99.3978 76.8542V77.1039H100.165V76.8542C99.9587 76.8542 99.8786 76.7293 99.8671 76.5045C99.8533 76.0721 99.8533 75.6382 99.8671 75.2058V73.982L101.012 77.1539H101.287V74.6564C101.275 74.2321 101.275 73.8069 101.287 73.3826C101.287 73.1329 101.378 73.033 101.538 73.033V72.7583H100.749V73.033C100.955 73.033 101.035 73.033 101.046 73.3826C101.057 73.8069 101.057 74.2321 101.046 74.6564V75.5555L100.016 72.7583H99.3406V73.033C99.455 73.033 99.5237 73.033 99.5695 73.2328C99.6153 73.4326 99.6382 73.5075 99.6382 74.007L99.6267 73.982Z" fill="#002046"/>
<path d="M101.538 77.1539H102.692V76.9083H102.546C102.326 76.9083 102.326 76.9083 102.381 76.5154L102.527 75.9015H103.37L103.553 76.5645C103.553 76.8101 103.553 76.8592 103.425 76.9083H103.278V77.1539H104.835V76.9083C104.579 76.9083 104.487 76.9083 104.341 76.2453C104.194 75.5823 103.938 74.7965 103.736 74.0106L103.37 72.7583H103.04L102.051 76.1716C101.886 76.7364 101.813 76.761 101.557 76.8101L101.538 77.1539ZM102.912 74.2071L103.205 75.4595H102.582L102.912 74.2071Z" fill="#002046"/>
<path d="M96.1347 78.6253C96.3257 78.6075 96.5178 78.6468 96.6807 78.737C96.7988 78.8942 96.8776 79.0721 96.9117 79.2586H97.1427C97.1427 78.886 97.1427 78.4763 97.1427 78.2528H96.9537C96.9537 78.3459 96.9537 78.3832 96.7017 78.3832H94.3079C94.1609 78.3832 94.0979 78.3832 94.0349 78.2528H93.8459C93.8459 78.5135 93.8459 78.8488 93.8459 79.2772H94.0349C94.072 79.106 94.1431 78.942 94.2449 78.7929C94.2449 78.6998 94.4969 78.6439 94.8749 78.6439V80.7486C94.8749 81.2887 94.8749 81.326 94.3919 81.3446V81.5495H96.3657V81.3446C95.8828 81.3446 95.8408 81.3446 95.8408 80.7486V78.6253H96.1347Z" fill="#002046"/>
<path d="M97.1426 81.3423V81.5495H99.3404V81.3423C98.8804 81.3423 98.8293 81.3423 98.8293 80.7394V79.0628C98.8293 78.5165 98.8293 78.4788 99.3404 78.46V78.2528H97.1426V78.46C97.6026 78.46 97.6537 78.46 97.6537 79.0628V80.6641C97.6537 81.2104 97.6537 81.2481 97.1426 81.2669V81.3423Z" fill="#002046"/>
<path d="M102.635 79.8557C102.641 79.6458 102.619 79.436 102.568 79.2395C102.518 79.0431 102.44 78.8641 102.341 78.7138C102.241 78.5634 102.122 78.445 101.99 78.3659C101.858 78.2867 101.717 78.2486 101.574 78.2537C101.423 78.2461 101.272 78.2847 101.131 78.3673C100.991 78.4498 100.863 78.5745 100.757 78.7334C100.65 78.8923 100.567 79.0821 100.513 79.2907C100.458 79.4994 100.434 79.7224 100.441 79.9457C100.435 80.1597 100.46 80.373 100.514 80.5721C100.567 80.7711 100.648 80.9516 100.751 81.1022C100.854 81.2527 100.977 81.3701 101.113 81.4468C101.248 81.5235 101.393 81.5579 101.538 81.5478C101.687 81.5533 101.835 81.5127 101.973 81.4287C102.111 81.3447 102.236 81.219 102.339 81.0597C102.443 80.9004 102.522 80.7111 102.573 80.5038C102.624 80.2964 102.645 80.0757 102.635 79.8557V79.8557ZM101.05 79.7657C101.05 78.9377 101.257 78.5057 101.513 78.5057C101.769 78.5057 102.037 79.0457 102.037 80.0177C102.037 80.9898 101.879 81.2958 101.599 81.2958C101.318 81.2958 101.05 80.6478 101.05 79.7657Z" fill="#002046"/>
<path d="M96.7863 86.4377V85.3009C96.7863 84.9472 96.7863 84.9346 97.0981 84.9093V84.8462H96.0438L95.4794 86.1093L94.7815 84.8462H93.8459V84.9725C94.1578 84.9725 94.1875 85.0356 94.1578 85.4651V86.1472C94.1578 86.4629 94.1578 86.6398 94.1578 86.7408C94.1578 86.8419 94.0538 86.905 93.8608 86.9177V87.044H94.8557V86.9177C94.5884 86.9177 94.4993 86.9177 94.4845 86.7408C94.4685 86.5558 94.4685 86.3701 94.4845 86.1851V85.4272L95.2121 87.0187H95.4349L96.2071 85.3135V86.5008C96.2071 86.8798 96.2071 86.8924 95.8953 86.9177V87.044H97.1427V86.9177C96.8605 86.9177 96.8457 86.9177 96.8308 86.5008L96.7863 86.4377Z" fill="#002046"/>
<path d="M99.8748 86.7156C99.7848 86.758 99.6804 86.79 99.568 86.8095C99.4555 86.829 99.3371 86.8357 99.22 86.8292C99.0783 86.8446 98.9326 86.8446 98.7909 86.8292C98.7909 86.8292 98.7909 86.7156 98.7909 86.5387V85.983H99.0845C99.6264 85.983 99.6264 85.983 99.6941 86.2987H99.9425V85.503H99.6716C99.6716 85.7682 99.6716 85.7809 99.0619 85.7809H98.7683V85.124C98.7683 85.0104 98.7683 85.0104 99.0167 85.0104C99.3329 85.0104 99.5361 85.0104 99.649 85.0862C99.7699 85.1793 99.8474 85.2878 99.8748 85.4019H100.146C100.146 85.1493 100.146 84.8967 100.146 84.8462H97.1877V84.9725C97.5942 84.9725 97.6393 84.9725 97.6393 85.3893V86.5135C97.6393 86.8798 97.6393 86.8924 97.1426 86.9177V87.044H100.213C100.313 86.8493 100.389 86.6509 100.439 86.4503H100.168C100.113 86.574 100.013 86.6901 99.8748 86.7913V86.7156Z" fill="#002046"/>
<path d="M103.252 86.6194C103.047 86.2697 102.842 85.8826 102.619 85.483L102.283 84.8462H101.948L100.942 86.5819C100.775 86.8691 100.7 86.8816 100.439 86.9066V87.0315H101.65V86.9066H101.464C101.222 86.9066 101.222 86.9066 101.296 86.7193L101.445 86.3946H102.283L102.451 86.7318C102.451 86.8567 102.451 86.8941 102.321 86.9066H102.172V87.044H103.736V86.9066C103.494 86.9066 103.401 86.9066 103.252 86.5819V86.6194ZM101.538 86.2073L101.836 85.558L102.153 86.2073H101.538Z" fill="#002046"/>
<path d="M85.0703 122.209C84.8517 122.206 84.6371 122.268 84.4541 122.388C84.271 122.507 84.1278 122.679 84.0427 122.88C83.9576 123.081 83.9345 123.304 83.9764 123.518C84.0183 123.733 84.1233 123.93 84.2779 124.085C84.4325 124.239 84.6297 124.344 84.8443 124.386C85.0589 124.428 85.2812 124.405 85.4826 124.32C85.684 124.235 85.8555 124.092 85.975 123.909C86.0946 123.726 86.1568 123.511 86.1538 123.292C86.1538 123.005 86.0396 122.729 85.8364 122.526C85.6332 122.323 85.3577 122.209 85.0703 122.209V122.209Z" fill="#002046"/>
<path d="M97.1428 126.078C97.1387 126.511 97.0211 126.925 96.8155 127.229C96.6098 127.533 96.3326 127.703 96.0439 127.703C95.8259 127.703 95.6128 127.606 95.4318 127.424C95.2507 127.242 95.1099 126.983 95.0272 126.68C94.9445 126.378 94.9237 126.045 94.9673 125.725C95.011 125.404 95.1172 125.111 95.2725 124.881C95.4277 124.652 95.6249 124.496 95.8391 124.435C96.0533 124.375 96.2747 124.41 96.4752 124.539C96.6757 124.667 96.8463 124.882 96.9651 125.156C97.084 125.43 97.1458 125.751 97.1428 126.078V126.078Z" fill="#002046"/>
<path d="M91.6483 39.2418C91.6483 39.6789 91.4746 40.0982 91.1655 40.4073C90.8563 40.7165 90.4371 40.8901 89.9999 40.8901C89.5627 40.8901 89.1435 40.7165 88.8344 40.4073C88.5252 40.0982 88.3516 39.6789 88.3516 39.2418C88.3516 38.8046 88.5252 38.3853 88.8344 38.0762C89.1435 37.7671 89.5627 37.5934 89.9999 37.5934C90.4371 37.5934 90.8563 37.7671 91.1655 38.0762C91.4746 38.3853 91.6483 38.8046 91.6483 39.2418Z" fill="#002046"/>
<path d="M120.22 50.2307C120.22 50.5568 120.155 50.8755 120.035 51.1465C119.914 51.4176 119.742 51.6289 119.541 51.7536C119.341 51.8784 119.12 51.911 118.906 51.8474C118.693 51.7838 118.498 51.6268 118.344 51.3963C118.19 51.1658 118.085 50.8721 118.043 50.5523C118.001 50.2326 118.022 49.9011 118.106 49.6C118.189 49.2988 118.33 49.0413 118.51 48.8602C118.691 48.6791 118.904 48.5824 119.121 48.5824C119.412 48.5824 119.692 48.7561 119.898 49.0652C120.104 49.3743 120.22 49.7936 120.22 50.2307V50.2307Z" fill="#002046"/>
<path d="M59.7802 104.092C59.7694 103.289 59.5571 102.509 59.1708 101.852C58.9302 101.382 58.5979 100.99 58.2025 100.707C57.8072 100.425 57.3604 100.262 56.9006 100.231C55.9887 100.389 55.1358 100.864 54.4476 101.597L50.989 104.402L51.6899 105.604L55.3313 102.653C56.0931 102.016 56.5197 101.688 56.8549 101.688C57.1204 101.683 57.3824 101.761 57.6149 101.914C57.8474 102.068 58.0424 102.291 58.1804 102.562C58.4047 102.935 58.5319 103.378 58.5461 103.837C58.5461 104.493 58.2566 104.912 57.571 105.476L53.6096 108.901L54.3257 110.121L58.1804 106.824C59.5212 105.731 59.7802 105.003 59.7802 104.092Z" fill="#002046"/>
<path d="M56.0142 94.8861L49.6987 97.1838L54.697 91.5728L54.2098 90.3407L45.4944 93.1712L45.9635 94.3533L52.3873 92.3553L47.371 97.9164L47.8582 99.1319L56.4834 96.0849L56.0142 94.8861Z" fill="#002046"/>
<path d="M43.2966 86.4311L52.9385 84.8462L53.1867 86.5579L43.5257 88.1429L43.2966 86.4311Z" fill="#002046"/>
<path d="M53.1104 79.0316L43.5639 76.0549V77.3051L51.3156 79.6419L43.2966 81.3832V82.6483L53.1867 80.3563L53.1104 79.0316Z" fill="#002046"/>
<path d="M56.2489 63.8311L53.0642 61.9512L53.2566 61.5826C53.8166 60.5321 53.9916 60.3663 55.4089 60.4953L57.9637 60.7349L58.6811 59.3342L55.7414 59.0761C55.2672 58.9827 54.7807 58.9827 54.3065 59.0761C54.1568 59.1354 54.0155 59.216 53.8866 59.3157C53.9399 59.1484 53.9752 58.9753 53.9916 58.7997C53.9761 58.5169 53.9046 58.2406 53.7816 57.9888C53.6913 57.7012 53.5472 57.4357 53.3579 57.2078C53.1686 56.9798 52.9378 56.7942 52.6792 56.6618C52.2943 56.4138 51.8529 56.2801 51.4018 56.2747C50.1419 56.2747 49.547 57.0488 48.742 58.5785L47.6921 60.569L55.5839 65.066L56.2489 63.8311ZM52.1192 61.0113L51.9443 61.3615L49.407 59.9239L49.8094 59.1867C50.3344 58.1915 50.7019 57.8045 51.2618 57.8045C51.5185 57.8107 51.7701 57.8801 51.9967 58.0072C52.3153 58.2091 52.5567 58.5221 52.6792 58.8918C52.6974 59.0263 52.6974 59.1628 52.6792 59.2973C52.6204 59.9121 52.4158 60.5015 52.0842 61.0113H52.1192Z" fill="#002046"/>
<path d="M62.2122 44.1868L68.5712 51.0526L67.2379 51.8791L60.8789 45.0303L62.2122 44.1868Z" fill="#002046"/>
<path d="M68.8195 40.8764L71.8579 48.5824L72.9669 47.8354L69.9285 40.1293L71.8883 38.8122L71.387 37.5934L66.3735 40.9746L66.8597 42.2131L68.8195 40.8764Z" fill="#002046"/>
<path d="M81.0574 45.2857L82.5998 44.8965L81.4726 41.4641L82.8569 35.3956L81.1562 35.8379L80.2862 40.1903L76.8256 36.8818L75.1646 37.3064L79.9698 41.7472L81.0574 45.2857Z" fill="#002046"/>
<path d="M110.295 44.9271L113.173 46.7547L113.766 45.6764L110.905 43.8487L112.161 41.6189L115.196 43.4466L115.824 42.3317L111.568 39.7912L107.033 47.8514L108.237 48.5824L110.295 44.9271Z" fill="#002046"/>
<path d="M124.615 65.2745L125.099 66.622L129.151 67.4402L126.444 70.2637L126.964 71.6593L130.549 67.8092L135.604 68.9001L135.102 67.5685L131.409 66.8306L133.901 64.2799L133.381 62.8681L130.047 66.4616L124.615 65.2745Z" fill="#002046"/>
<path d="M126.907 77.9026L131.242 77.6195L131.542 80.4505L132.8 80.376L132.443 77.545L135.089 77.3662L135.389 80.3462L136.703 80.2568L136.271 76.0549L126.813 76.6807L126.907 77.9026Z" fill="#002046"/>
<path d="M131.431 83.7484C130.39 83.7271 129.369 83.9953 128.515 84.5143C127.976 84.8578 127.539 85.3097 127.243 85.8317C126.947 86.3537 126.8 86.9303 126.814 87.5125C126.954 88.2788 127.311 89.0026 127.854 89.618C128.396 90.2334 129.106 90.7211 129.919 91.0367C130.732 91.3523 131.623 91.4859 132.511 91.4254C133.398 91.3648 134.255 91.112 135.002 90.6899C135.537 90.3471 135.971 89.8975 136.267 89.3788C136.563 88.8601 136.712 88.2872 136.703 87.708C136.661 87.1465 136.49 86.5981 136.2 86.0953C135.91 85.5924 135.507 85.1454 135.016 84.7807C134.524 84.416 133.954 84.1411 133.338 83.9722C132.722 83.8032 132.074 83.7438 131.431 83.7973V83.7484ZM134.291 89.5819C133.671 89.9385 132.94 90.1205 132.198 90.1033C130.328 90.1033 128.141 89.2071 128.141 87.5776C128.135 87.2054 128.23 86.8371 128.419 86.503C128.607 86.1689 128.884 85.8783 129.225 85.6549C129.85 85.2782 130.597 85.0842 131.356 85.1009C132.024 85.0765 132.689 85.1824 133.303 85.4107C133.918 85.6391 134.466 85.9841 134.908 86.4207C135.217 86.7833 135.381 87.224 135.375 87.6754C135.38 88.0452 135.284 88.4106 135.095 88.7419C134.907 89.0732 134.631 89.3611 134.291 89.5819V89.5819Z" fill="#002046"/>
<path d="M124.655 62.8681C125.506 62.8442 126.334 62.5362 127.047 61.9783C127.616 61.5879 128.094 61.0311 128.437 60.3593C128.78 59.6875 128.978 58.9223 129.011 58.1344C129.004 57.371 128.82 56.6251 128.479 55.9811C128.184 55.3957 127.767 54.9126 127.27 54.5789C126.773 54.2452 126.213 54.0723 125.645 54.077C124.808 54.1004 123.994 54.4089 123.297 54.9668C122.723 55.3554 122.24 55.9137 121.893 56.5892C121.547 57.2648 121.35 58.0354 121.319 58.8285C121.326 59.8939 121.68 60.9134 122.303 61.6685C122.927 62.4236 123.771 62.8542 124.655 62.8681V62.8681ZM123.961 56.1947C124.514 55.7328 125.165 55.4732 125.837 55.4473C126.182 55.4352 126.525 55.5343 126.828 55.7345C127.132 55.9346 127.386 56.2286 127.564 56.5862C127.781 57.0024 127.899 57.4827 127.904 57.9743C127.866 58.5407 127.711 59.0867 127.453 59.5623C127.195 60.038 126.842 60.4281 126.427 60.697C125.853 61.1652 125.185 61.4359 124.493 61.48C123.959 61.4666 123.449 61.2059 123.07 60.7521C122.69 60.2982 122.471 59.686 122.455 59.042C122.488 58.4576 122.64 57.892 122.898 57.3953C123.155 56.8986 123.51 56.4862 123.932 56.1947H123.961Z" fill="#002046"/>
<path d="M101.307 45.2857C102 45.2723 102.678 45.1004 103.276 44.7862C104.086 44.3277 104.754 43.6939 105.218 42.9432C105.682 42.1925 105.928 41.3491 105.933 40.4908C105.949 39.7678 105.763 39.0526 105.394 38.4097C105.025 37.8197 104.485 37.3302 103.831 36.9931C103.177 36.656 102.433 36.4839 101.678 36.495C100.659 36.5476 99.6866 36.8986 98.9113 37.4941C98.1359 38.0897 97.6002 38.8968 97.3862 39.7915C97.2335 40.2454 97.1522 40.7161 97.1447 41.1901C97.1205 41.9351 97.3058 42.6737 97.6835 43.3378C98.0515 43.9297 98.5909 44.4215 99.245 44.7615C99.899 45.1014 100.643 45.2768 101.399 45.2691L101.307 45.2857ZM101.79 37.6937C102.165 37.7007 102.535 37.778 102.876 37.9207C103.216 38.0635 103.519 38.2684 103.766 38.5224C104.013 38.7764 104.197 39.0739 104.308 39.3957C104.419 39.7175 104.453 40.0565 104.409 40.3909C104.409 41.6063 103.443 44.087 101.214 44.087C100.752 44.083 100.3 43.9682 99.9043 43.7544C99.5089 43.5406 99.1847 43.2358 98.9655 42.8716C98.6997 42.4026 98.5658 41.8825 98.5753 41.3565C98.5753 39.8248 99.7087 37.6937 101.79 37.6937V37.6937Z" fill="#002046"/>
<path d="M55.3845 68.3097L54.0689 67.9919L52.9662 71.1695L49.9674 70.5022L50.9928 67.563L49.7159 67.2611L48.6905 70.2798L46.04 69.6443L47.2588 66.4667L45.9626 66.1649L44.3955 70.6134L54.0689 72.7583L55.3845 68.3097Z" fill="#002046"/>
<path d="M59.1353 52.9443C59.6311 52.7017 60.1691 52.5421 60.7246 52.4728C60.983 52.4516 61.24 52.5257 61.4398 52.6791C61.5589 52.774 61.6545 52.8916 61.7203 53.0238C61.7862 53.156 61.8206 53.2997 61.8213 53.4453C61.8038 53.8043 61.6456 54.1449 61.3763 54.4032C60.8715 54.8493 60.2355 55.1467 59.5486 55.2579L59.8187 56.2747C60.7572 56.1492 61.618 55.7214 62.2504 55.0663C62.761 54.6035 63.0574 53.9746 63.0768 53.3127C63.0727 53.0055 62.9967 52.7027 62.854 52.4254C62.7113 52.1481 62.5054 51.9028 62.2504 51.7065C61.8521 51.3675 61.3288 51.1829 60.7882 51.1907C60.171 51.2273 59.567 51.3723 59.0082 51.6181C58.4201 51.8391 57.4189 52.3549 56.8944 51.8833C56.7941 51.8094 56.7134 51.7152 56.6583 51.6079C56.6032 51.5007 56.5753 51.3832 56.5765 51.2644C56.6021 50.9087 56.7658 50.5736 57.0374 50.3213C57.4444 49.8919 58.013 49.623 58.6268 49.5697L58.436 48.5824C57.9933 48.5947 57.5592 48.699 57.1658 48.8878C56.7724 49.0765 56.4298 49.3449 56.1633 49.6729C55.6766 50.1408 55.3985 50.7618 55.3846 51.4118C55.3827 51.692 55.4473 51.9692 55.5736 52.2238C55.6999 52.4785 55.8849 52.7043 56.1156 52.8854C56.5407 53.1761 57.051 53.3402 57.5789 53.356C58.1068 53.3718 58.6274 53.2385 59.0718 52.9738L59.1353 52.9443Z" fill="#002046"/>
<path d="M124.482 94.8884L127.948 96.3593L127.768 96.7312C127.301 97.7287 127.122 97.8977 125.668 97.8977H123.046L122.417 99.2333H125.452C125.941 99.2682 126.434 99.2225 126.906 99.0981C127.049 99.044 127.182 98.9699 127.301 98.8783C127.294 98.9514 127.294 99.025 127.301 99.0981C127.295 99.4107 127.356 99.7212 127.481 100.011C127.712 100.405 128.05 100.735 128.46 100.966C128.87 101.198 129.337 101.323 129.815 101.33C131.288 101.33 131.844 100.501 132.563 98.9797L133.406 97.1201L125.147 93.6374L124.482 94.8884ZM128.918 97.1708L129.061 96.8327L131.719 97.9485L131.431 98.6247C130.929 99.6729 130.605 100.011 129.887 100.011C129.593 100.008 129.306 99.9224 129.063 99.766C128.821 99.6095 128.632 99.3889 128.522 99.1319C128.451 98.9773 128.414 98.8103 128.415 98.6416C128.48 98.1254 128.651 97.6259 128.918 97.1708V97.1708Z" fill="#002046"/>
<path d="M120.578 102.945C119.749 103.917 119.235 105.183 119.121 106.535C119.128 107.23 119.272 107.914 119.544 108.536C119.815 109.158 120.206 109.701 120.688 110.125C121.405 110.813 122.306 111.199 123.242 111.22C124.355 111.22 125.248 110.825 126.642 108.85L127.912 107.056L121.644 101.33L120.578 102.945ZM126.345 107.415L126 107.917C125.154 109.138 124.574 109.874 123.446 109.874C122.755 109.846 122.095 109.541 121.581 109.012C121.211 108.709 120.903 108.318 120.679 107.866C120.454 107.413 120.318 106.91 120.28 106.391C120.354 105.495 120.691 104.653 121.236 104.004L121.769 103.232L126.345 107.415Z" fill="#002046"/>
<path d="M61.8258 121.592C62.5034 124.069 63.983 126.256 66.0367 127.817C68.0904 129.377 70.6043 130.224 73.191 130.227C74.6451 130.228 76.0865 129.958 77.4401 129.431C79.2748 130.037 81.1438 130.534 83.0374 130.921C82.4881 132.373 81.7965 133.768 80.9726 135.086V135.086L81.9964 136.136C82.2724 135.981 82.5839 135.9 82.9009 135.899C83.3657 135.943 83.7972 136.158 84.1112 136.501C84.4252 136.843 84.5992 137.29 84.5992 137.753C84.5992 138.216 84.4252 138.663 84.1112 139.006C83.7972 139.349 83.3657 139.563 82.9009 139.607C82.4813 139.589 82.0721 139.472 81.7071 139.266C81.3421 139.06 81.0318 138.771 80.8019 138.422C80.6299 139.051 80.5438 139.7 80.5459 140.352C80.5459 143.908 84.4538 147.971 89.8804 149.681C95.307 147.988 99.2148 143.908 99.2148 140.352C99.2292 139.701 99.1487 139.051 98.9759 138.422C98.7339 138.763 98.4185 139.046 98.0525 139.251C97.6865 139.456 97.2791 139.578 96.8599 139.607C96.3951 139.563 95.9636 139.349 95.6496 139.006C95.3355 138.663 95.1615 138.216 95.1615 137.753C95.1615 137.29 95.3355 136.843 95.6496 136.501C95.9636 136.158 96.3951 135.943 96.8599 135.899C97.2082 135.901 97.5498 135.994 97.8497 136.17L98.8565 135.171C98.3521 133.923 97.947 132.638 97.6449 131.328C106.261 130.331 114.252 126.364 120.222 120.119V120.119C126.383 115.53 131.38 109.577 134.813 102.734C138.247 95.891 140.023 88.3471 140 80.7029C140.016 72.1485 137.803 63.7351 133.574 56.28C129.346 48.8248 123.247 42.5812 115.868 38.1554C108.49 33.7296 100.083 31.272 91.4652 31.0213C82.8469 30.7706 74.3098 32.7353 66.6828 36.7247C59.0558 40.714 52.5981 46.5924 47.9369 53.789C43.2756 60.9856 40.5692 69.2558 40.0804 77.7965C39.5916 86.3373 41.3371 94.8583 45.1473 102.532C48.9575 110.206 54.703 116.772 61.8258 121.592V121.592ZM73.191 128.839C71.3961 128.858 69.6277 128.408 68.0631 127.536C66.4984 126.663 65.1926 125.397 64.2765 123.865C63.3603 122.334 62.8661 120.59 62.8433 118.81C62.8205 117.029 63.27 115.273 64.1466 113.719L65.8531 115.192C65.348 116.251 65.0802 117.407 65.0681 118.578C65.0705 120.095 65.4918 121.581 66.286 122.877C67.0803 124.172 68.2172 125.227 69.5733 125.927C71.3852 126.959 73.2734 127.853 75.2217 128.602C74.5574 128.723 73.8835 128.786 73.2081 128.788L73.191 128.839ZM89.9999 113.939C87.8811 113.938 85.7672 113.74 83.6859 113.347C82.4536 110.942 80.4207 109.035 77.9323 107.949C75.4438 106.862 72.6532 106.664 70.034 107.387C63.6461 102.679 59.1572 95.8673 57.3717 88.1734C55.5863 80.4795 56.6212 72.4061 60.2908 65.4006C63.9604 58.395 70.0249 52.9152 77.3971 49.9435C84.7694 46.9718 92.9674 46.7024 100.522 49.1837C108.076 51.665 114.492 56.7347 118.621 63.4841C122.75 70.2334 124.321 78.2212 123.052 86.0154C121.784 93.8097 117.759 100.901 111.699 106.018C105.639 111.135 97.9402 113.943 89.9828 113.939H89.9999ZM97.4572 114.532C96.4355 116.159 95.8482 118.018 95.7507 119.933C92.8233 119.17 89.9684 118.156 87.2183 116.902C87.533 116.426 87.9603 116.034 88.463 115.759C88.9657 115.485 89.5285 115.337 90.1022 115.328C92.6092 115.322 95.1087 115.055 97.5596 114.532H97.4572ZM86.8429 115.192C86.433 115.49 86.0853 115.864 85.819 116.293C84.5732 115.683 82.9691 114.887 81.9282 114.312C83.5481 114.698 85.189 114.992 86.8429 115.192V115.192ZM73.191 108.42C74.8809 108.435 76.5416 108.859 78.0286 109.655C79.5156 110.452 80.784 111.597 81.7234 112.991C80.063 112.545 78.4375 111.979 76.8599 111.298V111.298C75.7541 110.785 74.5482 110.519 73.3275 110.519C72.0245 110.519 70.7401 110.826 69.58 111.414C68.42 112.003 67.4175 112.857 66.6552 113.905C66.0067 113.567 65.3924 113.194 64.761 112.805C65.7092 111.431 66.9833 110.309 68.4712 109.539C69.9591 108.768 71.6151 108.372 73.2934 108.386L73.191 108.42ZM96.9111 134.528C96.4648 134.502 96.0178 134.568 95.5987 134.723C95.1796 134.877 94.7974 135.116 94.4765 135.425C94.1556 135.734 93.9029 136.106 93.7344 136.517C93.566 136.928 93.4855 137.369 93.4981 137.812C93.4931 138.254 93.5787 138.692 93.7498 139.099C93.9209 139.507 94.1738 139.875 94.4931 140.183C94.8125 140.49 95.1915 140.729 95.6072 140.887C96.023 141.044 96.4666 141.116 96.9111 141.097C97.1769 141.092 97.4408 141.052 97.6961 140.979C97.3207 143.738 94.0783 146.82 89.9145 148.191C85.7848 146.82 82.5596 143.721 82.133 140.979C82.394 141.052 82.6636 141.092 82.935 141.097C83.3826 141.128 83.8318 141.066 84.2533 140.913C84.6748 140.761 85.0592 140.521 85.3812 140.211C85.7033 139.901 85.9559 139.528 86.1225 139.114C86.289 138.701 86.3659 138.257 86.348 137.812C86.3502 137.384 86.2671 136.96 86.1035 136.563C85.9398 136.167 85.6989 135.806 85.3944 135.503C85.0899 135.199 84.728 134.958 84.3293 134.794C83.9307 134.629 83.5032 134.545 83.0715 134.545C83.6707 133.497 84.1733 132.398 84.5732 131.26C86.7694 131.656 88.9964 131.86 91.2285 131.87C92.9042 131.872 94.5788 131.787 96.2456 131.616C96.4921 132.61 96.7999 133.588 97.1671 134.545L96.9111 134.528ZM91.2115 130.413C83.9129 130.257 76.7644 128.327 70.3924 124.792C69.2542 124.207 68.2975 123.326 67.6243 122.244C66.9511 121.161 66.5867 119.918 66.5698 118.646C66.5449 117.775 66.6897 116.907 66.9965 116.089C68.7981 117.628 70.7212 119.021 72.7473 120.255C73.014 120.419 73.321 120.506 73.6347 120.509C73.8468 120.509 74.0568 120.467 74.2525 120.386C74.4483 120.305 74.6258 120.186 74.775 120.036C74.9242 119.887 75.042 119.709 75.1216 119.514C75.2012 119.319 75.241 119.111 75.2388 118.9C75.2465 118.584 75.1578 118.272 74.9842 118.006C74.8107 117.74 74.5604 117.533 74.2661 117.41C73.0715 116.902 70.5801 115.869 67.9009 114.498C68.5333 113.672 69.3484 113.001 70.2833 112.538C71.2183 112.074 72.2481 111.829 73.2934 111.823C74.2844 111.814 75.2645 112.029 76.1603 112.449L78.0033 113.516C83.8565 117.122 98.8736 126.248 117.013 121.169C110.188 127.332 101.655 130.363 91.1603 130.363L91.2115 130.413ZM89.9999 32.5671C100.163 32.561 110.071 35.7228 118.325 41.606C126.579 47.4891 132.762 55.7963 136 65.3543C139.238 74.9123 139.368 85.2381 136.371 94.8734C133.375 104.509 127.403 112.967 119.3 119.052C112.176 121.561 104.475 121.984 97.1159 120.272C97.3207 117.41 98.5152 114.346 100.341 113.77C107.805 111.469 114.276 106.752 118.72 100.372C123.164 93.9932 125.325 86.3201 124.856 78.5792C124.388 70.8384 121.318 63.4767 116.137 57.6706C110.956 51.8644 103.963 47.9489 96.2756 46.5499C88.5879 45.1508 80.6495 46.3489 73.7289 49.9527C66.8083 53.5565 61.3049 59.358 58.0983 66.4301C54.8917 73.5021 54.1669 81.4366 56.0398 88.9654C57.9127 96.4942 62.2751 103.183 68.4299 107.962C66.4408 108.825 64.7331 110.221 63.4982 111.992C62.8667 111.578 62.2573 111.131 61.6722 110.655L61.3651 110.959C61.9045 111.552 62.474 112.117 63.0716 112.652C61.9733 114.426 61.3833 116.463 61.3651 118.545C61.3481 118.877 61.3481 119.211 61.3651 119.543C53.1009 113.555 46.958 105.125 43.8155 95.462C40.673 85.7987 40.6919 75.3968 43.8696 65.7449C47.0472 56.0929 53.2207 47.6857 61.5066 41.7263C69.7925 35.767 79.766 32.5609 89.9999 32.5671V32.5671Z" fill="#002046"/>
</svg>
