<?xml version="1.0" encoding="UTF-8"?>
<svg width="57px" height="48px" viewBox="0 0 57 48" version="1.1" xmlns="http://www.w3.org/2000/svg" xmlns:xlink="http://www.w3.org/1999/xlink">
  <path fill="#085FF7" d="M23.1864407,48 L0.0141902246,48 L0.0141902246,25.1214953 C-0.0946002276,21.8317593 0.422146669,18.7414475 1.56444642,15.8504673 C2.70674616,12.9594871 4.31138126,10.4174564 6.37839986,8.22429907 C8.44541845,6.03114168 10.9203641,4.21184523 13.8033111,2.76635514 C16.6862581,1.32086505 19.8139367,0.398755888 23.1864407,0 L23.1864407,9.86915888 C19.0524035,11.1651155 16.2238942,13.0840994 14.7008278,15.6261682 C13.1777615,18.168237 12.4162398,21.2834707 12.4162398,24.9719626 L23.1864407,24.9719626 L23.1864407,48 Z M57,48 L33.8277495,48 L33.8277495,25.1214953 C33.7189591,21.8317593 34.235706,18.7414475 35.3780057,15.8504673 C36.5203055,12.9594871 38.1249406,10.4174564 40.1919592,8.22429907 C42.2589778,6.03114168 44.7339234,4.21184523 47.6168704,2.76635514 C50.4998174,1.32086505 53.627496,0.398755888 57,0 L57,9.86915888 C52.8659628,11.1651155 50.0374535,13.0840994 48.5143872,15.6261682 C46.9913208,18.168237 46.2297991,21.2834707 46.2297991,24.9719626 L57,24.9719626 L57,48 Z" id="quote-mark"></path>
</svg>
