<svg xmlns="http://www.w3.org/2000/svg" width="100" height="100" viewBox="0 0 100 100">
    <g fill="#FFF" fill-rule="evenodd">
        <path d="M30.693 63.162a26.704 26.704 0 0 0 1.952 0V68.1c0 2.643 1.236 3.937 3.946 3.937h39.756l9.997 9.296v-9.296h7.818c2.742 0 3.886-1.256 3.886-3.937V21.878c0-2.737-1.244-3.917-3.886-3.917H36.591c-2.691 0-3.946 1.29-3.946 3.917v4.952a26.702 26.702 0 0 0-1.952 0v-.969-4.945c0-2.768 2.051-4.916 4.903-4.916h59.567c2.799 0 4.837 2.074 4.837 4.959V69.14c0 2.824-1.966 4.851-4.871 4.851h-6.77v7.787c0 1.484-2.418 2.043-3.387 1.045l-9.407-8.832H35.571c-2.873 0-4.878-2.046-4.878-4.83v-6z"/>
        <path d="M52.02 55.604H85.15v1.98H49.505zM60.396 43.723h24.753v1.98H60.406zM49.505 31.842h35.644v1.98H52.122z"/>
        <path fill-opacity=".3" d="M31.188 62.583c-10.406 0-20.005-5.957-28.796-17.87 8.79-11.914 18.39-17.87 28.796-17.87 10.407 0 19.995 5.956 28.766 17.87-8.77 11.913-18.36 17.87-28.766 17.87zm0-7.728c5.383 0 9.746-4.324 9.746-9.66 0-5.334-4.363-9.659-9.746-9.659s-9.746 4.325-9.746 9.66 4.363 9.66 9.746 9.66z"/>
        <path d="M31.188 64.515c-11.483 0-21.88-6.6-31.188-19.802C9.309 31.512 19.705 24.91 31.188 24.91s21.88 6.6 31.188 19.802c-9.309 13.201-19.705 19.802-31.188 19.802zm0-1.932c10.407 0 19.995-5.957 28.766-17.87-8.77-11.914-18.36-17.87-28.766-17.87-10.406 0-20.005 5.956-28.796 17.87 8.79 11.913 18.39 17.87 28.796 17.87z"/>
        <path d="M31.188 54.855c-5.383 0-9.746-4.324-9.746-9.66 0-5.334 4.363-9.659 9.746-9.659s9.746 4.325 9.746 9.66-4.363 9.66-9.746 9.66zm0-1.932c4.306 0 7.797-3.46 7.797-7.727 0-4.268-3.49-7.728-7.797-7.728-4.306 0-7.797 3.46-7.797 7.728s3.49 7.727 7.797 7.727z"/>
    </g>
</svg>
