<svg height="100" viewBox="0 0 100 100" width="100" xmlns="http://www.w3.org/2000/svg"><g fill="#fff" fill-rule="evenodd"><path d="m50 73.629-9.567 26.371-11.359-14.511-18.074 3.835 10.879-30.208a35.557 35.557 0 0 1 -8.738-23.394c0-19.729 16.014-35.722 35.769-35.722s35.767 15.993 35.767 35.722c0 8.05-2.666 15.48-7.166 21.453.611 1.757 4.44 12.473 11.49 32.149l-18.3-3.835-11.207 14.511zm-.631-4.287h1.241c2.158 5.57 5.313 14.272 9.464 26.106l10.029-12.144 15.557 2.803-10.49-29.347a33.452 33.452 0 0 0 7.404-21.038c0-18.568-15.072-33.62-33.664-33.62s-33.664 15.052-33.664 33.62c0 8.846 3.422 16.895 9.015 22.897l-9.911 27.488 15.605-2.803 9.936 12.144 9.479-26.106z"/><path d="m49 70c-18.778 0-34-15.222-34-34s15.222-34 34-34 34 15.222 34 34-15.222 34-34 34zm0-28.208 7.494 4.523-1.985-8.525 6.617-5.73-8.721-.746-3.405-8.064-3.405 8.064-8.721.746 6.617 5.73-1.985 8.525z" fill-opacity=".3"/><path d="m49 72c-19.882 0-36-16.118-36-36s16.118-36 36-36 36 16.118 36 36-16.118 36-36 36zm0-2.118c18.713 0 33.882-15.17 33.882-33.882 0-18.713-15.17-33.882-33.882-33.882-18.713 0-33.882 15.17-33.882 33.882 0 18.713 15.17 33.882 33.882 33.882z"/><path d="m48 43.117-9.889 5.883 2.62-11.088-8.731-7.453 11.508-.97 4.492-10.489 4.492 10.489 11.508.97-8.731 7.453 2.62 11.088zm0-1.883 7.416 4.412-1.965-8.316 6.549-5.59-8.63-.728-3.37-7.866-3.37 7.866-8.63.728 6.549 5.59-1.965 8.316z"/></g></svg>