<svg height="73" viewBox="0 0 78 73" width="78" xmlns="http://www.w3.org/2000/svg"><g fill="#fff"><path d="m5 0h68c2.7614237 0 5 2.23857625 5 5v27c0 2.7614237-2.2385763 5-5 5h-68c-2.76142375 0-5-2.2385763-5-5v-27c0-2.76142375 2.23857625-5 5-5zm0 2c-1.65685425 0-3 1.34314575-3 3v27c0 1.6568542 1.34314575 3 3 3h68c1.6568542 0 3-1.3431458 3-3v-27c0-1.65685425-1.3431458-3-3-3z"/><path d="m5 2h68c1.6568542 0 3 1.34314575 3 3v27c0 1.6568542-1.3431458 3-3 3h-68c-1.65685425 0-3-1.3431458-3-3v-27c0-1.65685425 1.34314575-3 3-3zm15.5 19.4528692 3.8206041 2.3057413-1.0122586-4.3461237 3.3735219-2.9210973-4.4462144-.3803109-1.735653-4.1110786-1.735653 4.1110786-4.4462144.3803109 3.3735219 2.9210973-1.0122586 4.3461237z" fill-opacity=".3"/><path d="m20.5 23.2700195-6.1717451 3.7246589 1.6351869-7.0206613-5.4495352-4.7186955 7.1823463-.6143485 2.8037471-6.6409731 2.8037471 6.6409731 7.1823463.6143485-5.4495352 4.7186955 1.6351869 7.0206613zm0-1.8171503 3.8206041 2.3057413-1.0122586-4.3461237 3.3735219-2.9210973-4.4462144-.3803109-1.735653-4.1110786-1.735653 4.1110786-4.4462144.3803109 3.3735219 2.9210973-1.0122586 4.3461237z"/><path d="m5 60h68c2.7614237 0 5 2.2385763 5 5v3c0 2.7614237-2.2385763 5-5 5h-68c-2.76142375 0-5-2.2385763-5-5v-3c0-2.7614237 2.23857625-5 5-5zm0 2c-1.65685425 0-3 1.3431458-3 3v3c0 1.6568542 1.34314575 3 3 3h68c1.6568542 0 3-1.3431458 3-3v-3c0-1.6568542-1.3431458-3-3-3z"/><path d="m5 42h68c2.7614237 0 5 2.2385763 5 5v3c0 2.7614237-2.2385763 5-5 5h-68c-2.76142375 0-5-2.2385763-5-5v-3c0-2.7614237 2.23857625-5 5-5zm0 2c-1.65685425 0-3 1.3431458-3 3v3c0 1.6568542 1.34314575 3 3 3h68c1.6568542 0 3-1.3431458 3-3v-3c0-1.6568542-1.3431458-3-3-3z"/></g></svg>